<?xml version="1.0" standalone="no"?>
<!DOCTYPE svg PUBLIC "-//W3C//DTD SVG 20010904//EN"
 "http://www.w3.org/TR/2001/REC-SVG-20010904/DTD/svg10.dtd">
<svg version="1.0" xmlns="http://www.w3.org/2000/svg"
 width="800.000000pt" height="800.000000pt" viewBox="0 0 800.000000 800.000000"
 preserveAspectRatio="xMidYMid meet">
<metadata>
Created by potrace 1.11, written by Peter Selinger 2001-2013
</metadata>
<g transform="translate(0.000000,800.000000) scale(0.100000,-0.100000)"
fill="#000000" stroke="none">
<path d="M3758 7995 c-2 -1 -39 -5 -83 -9 -44 -3 -98 -8 -120 -11 -22 -3 -58
-7 -80 -9 -22 -3 -51 -7 -64 -10 -12 -3 -42 -7 -65 -10 -47 -6 -222 -41 -281
-57 -22 -6 -50 -13 -61 -15 -75 -14 -413 -125 -501 -165 -23 -10 -44 -19 -47
-19 -12 0 -327 -150 -336 -160 -3 -3 -34 -20 -70 -39 -86 -45 -299 -180 -393
-250 -42 -31 -86 -63 -98 -71 -12 -8 -27 -19 -33 -25 -6 -5 -54 -46 -106 -90
-105 -88 -200 -177 -295 -275 -125 -130 -156 -165 -275 -317 -39 -48 -74 -93
-80 -100 -5 -7 -10 -16 -10 -22 0 -5 -4 -11 -9 -13 -5 -1 -40 -50 -78 -108
-68 -103 -80 -122 -155 -252 -50 -87 -158 -303 -158 -317 0 -6 -4 -11 -8 -11
-5 0 -9 -6 -9 -12 -1 -7 -21 -60 -45 -118 -51 -120 -99 -257 -134 -380 -14
-47 -27 -92 -29 -100 -9 -30 -27 -106 -31 -130 -3 -14 -8 -34 -11 -45 -4 -11
-7 -27 -9 -35 -1 -8 -4 -28 -8 -45 -11 -54 -14 -69 -21 -115 -4 -25 -9 -54
-11 -65 -8 -43 -25 -184 -31 -270 -14 -175 -7 -661 11 -765 2 -14 7 -51 11
-84 7 -61 9 -73 26 -171 6 -33 13 -71 15 -85 35 -195 140 -540 234 -765 40
-94 173 -368 190 -390 4 -5 22 -37 40 -70 18 -33 50 -86 72 -118 21 -32 38
-60 38 -63 0 -6 92 -137 107 -152 7 -7 13 -17 13 -21 0 -4 8 -16 18 -27 9 -10
30 -37 47 -59 16 -22 34 -45 40 -51 5 -6 19 -23 30 -38 11 -15 34 -42 50 -60
17 -18 47 -52 68 -77 173 -199 484 -474 685 -606 31 -21 59 -40 62 -43 4 -6
52 -36 190 -121 246 -150 608 -308 905 -394 33 -9 67 -20 75 -23 8 -3 24 -7
34 -9 10 -2 53 -12 95 -23 42 -10 90 -21 106 -24 30 -6 57 -11 105 -21 14 -3
45 -8 70 -11 25 -3 52 -7 60 -9 8 -2 35 -7 60 -10 25 -3 63 -7 85 -10 202 -26
711 -26 900 0 17 2 48 6 70 9 22 3 51 7 64 10 12 3 42 7 65 10 47 6 222 41
281 57 22 6 47 12 55 14 55 11 165 44 315 95 240 82 455 179 680 309 143 82
338 208 343 222 2 5 8 9 13 9 10 0 24 10 60 42 10 10 22 18 25 18 4 0 98 74
114 90 3 3 30 25 60 50 55 46 65 54 166 152 211 201 412 441 560 668 27 41 52
77 56 80 4 3 12 17 18 30 5 14 18 37 28 52 77 117 211 386 284 566 77 194 187
563 212 712 3 19 7 44 10 55 2 11 7 40 11 65 4 25 9 54 11 65 8 43 25 184 31
270 14 179 7 659 -11 765 -2 14 -7 52 -11 85 -4 32 -8 66 -10 75 -1 8 -9 49
-16 90 -7 41 -13 77 -14 80 -1 3 -5 23 -9 45 -40 206 -134 510 -226 730 -47
112 -176 373 -215 434 -14 23 -25 43 -25 46 0 4 -13 26 -30 50 -17 24 -30 46
-30 50 0 3 -5 11 -11 18 -6 7 -27 38 -47 69 -49 75 -166 237 -194 268 -13 14
-39 46 -58 70 -77 101 -275 307 -400 419 -19 18 -46 42 -60 55 -14 12 -45 38
-70 57 -24 19 -51 40 -59 48 -29 27 -208 157 -276 201 -38 25 -71 48 -73 52
-2 5 -8 8 -14 8 -6 0 -30 14 -55 30 -24 17 -46 30 -48 30 -2 0 -41 22 -87 48
-223 129 -541 262 -803 337 -33 9 -67 20 -75 23 -8 3 -24 7 -34 9 -10 2 -53
12 -95 23 -65 16 -209 45 -276 56 -66 10 -84 13 -125 18 -97 13 -137 18 -180
22 -52 5 -587 14 -592 9z"/>
</g>
</svg>
